<?xml version="1.0" encoding="utf-8"?>
<!-- Generator: Adobe Illustrator 24.0.0, SVG Export Plug-In . SVG Version: 6.00 Build 0)  -->
<svg version="1.1" id="Camada_1" xmlns="http://www.w3.org/2000/svg" xmlns:xlink="http://www.w3.org/1999/xlink" x="0px" y="0px"
	 viewBox="0 0 500 500" style="enable-background:new 0 0 500 500;" xml:space="preserve">
<style type="text/css">
	.st0{fill:#FFFFFF;}
	.st1{fill:none;stroke:#FFFFFF;stroke-width:3;stroke-miterlimit:10;}
</style>
<g>
	<g>
		<path class="st0" d="M308.24,468.3h-7.52c0,0,0,0,0,0h-29.55c-3.24,0-6.29,1.73-7.95,4.5l-8.57,14.28h-10.4
			c0-0.04,0.01-0.08,0.01-0.12v-18.79c0-0.97-0.79-1.76-1.76-1.76c-0.97,0-1.76,0.79-1.76,1.76v18.79c0,0.04,0,0.08,0.01,0.12h-9.63
			v-3.87c0-2.01-1.63-3.64-3.64-3.64h-3.87v-7.63c0-0.97-0.79-1.76-1.76-1.76h-30.06c-0.97,0-1.76,0.79-1.76,1.76v9.39
			c0,0.97,0.79,1.76,1.76,1.76h3.76c2.14,0,3.87,1.74,3.87,3.87v5.64c0,1.42,0.4,2.75,1.1,3.87h-3.1c-0.97,0-1.76,0.79-1.76,1.76
			s0.79,1.76,1.76,1.76h80.78c0.97,0,1.76-0.79,1.76-1.76s-0.79-1.76-1.76-1.76h-3.4c0.29-0.48,0.54-0.99,0.72-1.54l1.58-4.74
			c0.38-1.15,1.3-2.07,2.45-2.45l8.12-2.71c4.31-1.44,8.08-4.31,10.6-8.1l3.42-5.12h6.57c0.97,0,1.76-0.79,1.76-1.76
			S309.21,468.3,308.24,468.3z M212.54,479.57h-3.99v-5.87h3.99V479.57z M201.04,479.57v-5.87h3.99v5.87H201.04z M193.52,473.7h3.99
			v5.87h-2h-2V473.7z M295.32,474.99c-2.09,3.13-5.21,5.52-8.78,6.71l-8.12,2.71c-2.2,0.73-3.95,2.48-4.68,4.68l-1.58,4.74
			c-0.53,1.58-2.01,2.65-3.68,2.65h-61.69c-2.14,0-3.87-1.74-3.87-3.87v-5.64c0-1.42-0.4-2.75-1.1-3.87h12.49
			c0.97,0,1.76-0.79,1.76-1.76v-7.63h3.99v7.63c0,0.97,0.79,1.76,1.76,1.76h5.64c0.06,0,0.12,0.05,0.12,0.12v5.64
			c0,0.97,0.79,1.76,1.76,1.76h26.3c0.62,0,1.19-0.32,1.51-0.86l9.08-15.14c1.03-1.72,2.92-2.79,4.93-2.79h26.27L295.32,474.99z"/>
		<path class="st0" d="M214.81,461.77c0.33,0.41,0.84,0.66,1.37,0.66h7.39c0,0,0,0,0.01,0c0,0,0,0,0,0h7.5c0,0,0,0,0.01,0
			c0,0,0,0,0,0h7.5c0,0,0,0,0.01,0c0,0,0,0,0,0h7.5c0,0,0,0,0.01,0c0,0,0,0,0,0h7.63c0,0,0,0,0.01,0c0,0,0,0,0,0h7.38
			c0,0,0,0,0.01,0c0,0,0,0,0,0h7.51c0.83,0,1.55-0.58,1.72-1.39c2.71-12.53,2.71-25.78,0-38.32c-0.18-0.81-0.89-1.39-1.72-1.39
			h-7.53c0,0,0,0-0.01,0h-7.39c0,0,0,0-0.01,0h-7.63c0,0,0,0-0.01,0h-1.85v-5.87h18.9c0.71,0,1.35-0.43,1.63-1.09
			c0.27-0.66,0.12-1.42-0.38-1.92l-4.39-4.39l4.39-4.39c0.5-0.5,0.65-1.26,0.38-1.92c-0.27-0.66-0.91-1.09-1.63-1.09h-18.9v-2
			c0-0.97-0.79-1.76-1.76-1.76c-0.97,0-1.76,0.79-1.76,1.76v22.66h-2.13c0,0,0,0-0.01,0h-7.51c0,0,0,0-0.01,0h-7.51c0,0,0,0-0.01,0
			h-7.37c-0.53,0-1.04,0.24-1.37,0.66c-0.33,0.41-0.46,0.96-0.35,1.48c2.6,12.05,2.6,24.78,0,36.83
			C214.35,460.81,214.48,461.36,214.81,461.77z M258.9,404.19l-2.63,2.63c-0.69,0.69-0.69,1.8,0,2.49l2.63,2.63h-14.65v-7.75H258.9z
			 M229.66,424.85c2.22,11.17,2.22,22.88,0,34.05h-3.93c2.13-11.18,2.13-22.87,0-34.05H229.66z M237.17,424.85
			c2.22,11.17,2.22,22.88,0,34.05h-3.93c2.13-11.18,2.13-22.87,0-34.05H237.17z M244.69,424.85c2.22,11.17,2.22,22.88,0,34.05h-3.93
			c2.13-11.18,2.13-22.87,0-34.05H244.69z M252.32,424.85c2.22,11.17,2.22,22.88,0,34.05h-4.05c2.13-11.18,2.13-22.87,0-34.05
			H252.32z M259.71,424.85c2.22,11.17,2.22,22.88,0,34.05h-3.8c2.13-11.18,2.13-22.87,0-34.05H259.71z M267.23,458.9h-3.93
			c2.13-11.18,2.13-22.87,0-34.05h3.93C269.45,436.02,269.45,447.73,267.23,458.9z M218.34,424.85h3.8
			c2.22,11.17,2.22,22.88,0,34.05h-3.8C220.47,447.72,220.47,436.04,218.34,424.85z"/>
	</g>
	<path class="st0" d="M468.4,188.08h-3.93v-8.3c0-1.23-0.99-2.22-2.22-2.22h-5.54l-3.76-43.84h2.71c1.23,0,2.22-0.99,2.22-2.22
		v-6.44h2.85c1.23,0,2.22-0.99,2.22-2.22v-15.32c0-1.23-0.99-2.22-2.22-2.22h-8.19c-1.23,0-2.22,0.99-2.22,2.22v4.61h-2.04v-4.61
		c0-1.23-0.99-2.22-2.22-2.22h-12.15c-1.23,0-2.22,0.99-2.22,2.22v4.61h-2.04v-4.61c0-1.23-0.99-2.22-2.22-2.22h-8.19
		c-1.23,0-2.22,0.99-2.22,2.22v15.32c0,1.23,0.99,2.22,2.22,2.22h2.85v6.44c0,1.23,0.99,2.22,2.22,2.22h2.71l-3.76,43.84h-5.54
		c-1.23,0-2.22,0.99-2.22,2.22v8.3h-3.93c-1.23,0-2.22,0.99-2.22,2.22v12.79c0,1.23,0.99,2.22,2.22,2.22h56.8
		c1.23,0,2.22-0.99,2.22-2.22V190.3C470.62,189.08,469.63,188.08,468.4,188.08z M421.48,109.75h3.75v4.61
		c0,1.23,0.99,2.22,2.22,2.22h6.48c1.23,0,2.22-0.99,2.22-2.22v-4.61h7.71v4.61c0,1.23,0.99,2.22,2.22,2.22h6.48
		c1.23,0,2.22-0.99,2.22-2.22v-4.61h3.75v10.88h-37.04V109.75z M426.55,125.07h26.9v4.22h-26.9V125.07z M431.5,133.72h17l3.76,43.84
		h-24.51L431.5,133.72z M419.96,182h40.07v6.08h-40.07V182z M466.18,200.87h-52.36v-8.35h52.36V200.87z"/>
	<g>
		<g>
			<g>
				<path class="st0" d="M434.47,325.6c-1.31-1.31-3.06-2.04-4.92-2.04c-1.86,0-3.6,0.72-4.92,2.04c-1.31,1.31-2.04,3.06-2.04,4.92
					c0,1.86,0.72,3.6,2.04,4.92c1.31,1.31,3.06,2.04,4.92,2.04c1.86,0,3.6-0.72,4.92-2.04C437.18,332.72,437.18,328.31,434.47,325.6
					z M431.84,332.8c-0.61,0.61-1.42,0.95-2.29,0.95c-0.86,0-1.68-0.34-2.29-0.95s-0.95-1.42-0.95-2.29c0-0.86,0.34-1.68,0.95-2.29
					h0c0.61-0.61,1.42-0.95,2.29-0.95s1.68,0.34,2.29,0.95C433.1,329.49,433.1,331.54,431.84,332.8z"/>
			</g>
		</g>
		<g>
			<g>
				<path class="st0" d="M460.33,299.74c-2.71-2.71-7.12-2.71-9.83,0h0c-2.71,2.71-2.71,7.12,0,9.83c1.36,1.36,3.14,2.03,4.92,2.03
					c1.78,0,3.56-0.68,4.92-2.03c1.31-1.31,2.04-3.06,2.04-4.92C462.37,302.8,461.64,301.05,460.33,299.74z M457.7,306.94
					c-1.26,1.26-3.31,1.26-4.57,0c-1.26-1.26-1.26-3.31,0-4.57c1.26-1.26,3.31-1.26,4.57,0c0.61,0.61,0.95,1.42,0.95,2.29
					C458.65,305.52,458.31,306.33,457.7,306.94z"/>
			</g>
		</g>
		<g>
			<g>
				<path class="st0" d="M460.33,351.46c-2.71-2.71-7.12-2.71-9.83,0h0c-2.71,2.71-2.71,7.12,0,9.83c1.36,1.36,3.14,2.03,4.92,2.03
					c1.78,0,3.56-0.68,4.92-2.03c1.31-1.31,2.04-3.06,2.04-4.92C462.37,354.52,461.64,352.78,460.33,351.46z M457.7,358.67
					c-1.26,1.26-3.31,1.26-4.57,0c-1.26-1.26-1.26-3.31,0-4.57c1.26-1.26,3.31-1.26,4.57,0c0.61,0.61,0.95,1.42,0.95,2.29
					C458.65,357.24,458.31,358.06,457.7,358.67z"/>
			</g>
		</g>
		<g>
			<g>
				<path class="st0" d="M486.19,325.6c-1.31-1.31-3.06-2.04-4.92-2.04s-3.6,0.72-4.92,2.04c-1.31,1.31-2.04,3.06-2.04,4.92
					c0,1.86,0.72,3.6,2.04,4.92c1.31,1.31,3.06,2.04,4.92,2.04s3.6-0.72,4.92-2.04C488.9,332.72,488.9,328.31,486.19,325.6z
					 M483.56,332.8c-0.61,0.61-1.42,0.95-2.29,0.95c-0.86,0-1.68-0.34-2.29-0.95s-0.95-1.42-0.95-2.29c0-0.86,0.34-1.68,0.95-2.29h0
					c0.61-0.61,1.42-0.95,2.29-0.95c0.86,0,1.68,0.34,2.29,0.95C484.82,329.49,484.82,331.54,483.56,332.8z"/>
			</g>
		</g>
		<g>
			<g>
				<path class="st0" d="M413.77,363.97c-3.83,0-6.95,3.12-6.95,6.95s3.12,6.95,6.95,6.95s6.95-3.12,6.95-6.95
					C420.72,367.09,417.6,363.97,413.77,363.97z M413.77,374.16c-1.78,0-3.23-1.45-3.23-3.23c0-1.78,1.45-3.23,3.23-3.23
					c1.78,0,3.23,1.45,3.23,3.23S415.55,374.16,413.77,374.16z"/>
			</g>
		</g>
		<g>
			<g>
				<path class="st0" d="M395.48,345.68c-3.83,0-6.95,3.12-6.95,6.95c0,3.83,3.12,6.95,6.95,6.95c3.83,0,6.95-3.12,6.95-6.95
					C402.43,348.8,399.31,345.68,395.48,345.68z M395.48,355.87c-1.78,0-3.23-1.45-3.23-3.23c0-1.78,1.45-3.23,3.23-3.23
					c1.78,0,3.23,1.45,3.23,3.23C398.71,354.42,397.26,355.87,395.48,355.87z"/>
			</g>
		</g>
		<g>
			<g>
				<path class="st0" d="M432.05,345.68c-3.83,0-6.95,3.12-6.95,6.95c0,3.83,3.12,6.95,6.95,6.95s6.95-3.12,6.95-6.95
					C439.01,348.8,435.89,345.68,432.05,345.68z M432.05,355.87c-1.78,0-3.23-1.45-3.23-3.23c0-1.78,1.45-3.23,3.23-3.23
					c1.78,0,3.23,1.45,3.23,3.23C435.29,354.42,433.84,355.87,432.05,355.87z"/>
			</g>
		</g>
		<g>
			<g>
				<path class="st0" d="M395.48,382.26c-3.83,0-6.95,3.12-6.95,6.95c0,3.83,3.12,6.95,6.95,6.95c3.83,0,6.95-3.12,6.95-6.95
					C402.43,385.38,399.31,382.26,395.48,382.26z M395.48,392.45c-1.78,0-3.23-1.45-3.23-3.23s1.45-3.23,3.23-3.23
					c1.78,0,3.23,1.45,3.23,3.23S397.26,392.45,395.48,392.45z"/>
			</g>
		</g>
		<g>
			<g>
				<path class="st0" d="M432.05,382.26c-3.83,0-6.95,3.12-6.95,6.95c0,3.83,3.12,6.95,6.95,6.95s6.95-3.12,6.95-6.95
					C439.01,385.38,435.89,382.26,432.05,382.26z M432.05,392.45c-1.78,0-3.23-1.45-3.23-3.23s1.45-3.23,3.23-3.23
					c1.78,0,3.23,1.45,3.23,3.23S433.84,392.45,432.05,392.45z"/>
			</g>
		</g>
		<g>
			<g>
				<path class="st0" d="M497.76,325.11l-36.94-36.94c-1.44-1.44-3.36-2.24-5.4-2.24c-2.04,0-3.96,0.79-5.4,2.24l-36.94,36.94
					c-1.44,1.44-2.24,3.36-2.24,5.4c0,2.04,0.8,3.96,2.24,5.4l1.24,1.24h-26.66c-4.21,0-7.64,3.43-7.64,7.64v52.25
					c0,4.21,3.43,7.64,7.64,7.64h52.25c4.21,0,7.64-3.43,7.64-7.64v-26.66l2.48,2.48c1.44,1.44,3.36,2.24,5.4,2.24c0,0,0,0,0,0
					c2.04,0,3.96-0.8,5.4-2.24l36.94-36.94c1.44-1.44,2.24-3.36,2.24-5.4C500,328.47,499.2,326.56,497.76,325.11z M443.81,397.05
					L443.81,397.05c0,2.16-1.76,3.93-3.92,3.93h-52.25c-2.16,0-3.93-1.76-3.93-3.93V344.8c0-2.16,1.76-3.93,3.93-3.93h52.25
					c2.16,0,3.92,1.76,3.92,3.93V397.05z M495.13,333.29l-36.94,36.94c-0.74,0.74-1.73,1.15-2.77,1.15h0
					c-1.05,0-2.03-0.41-2.78-1.15l-5.11-5.11V344.8c0-3.95-3.01-7.21-6.86-7.6c-0.26-0.03-0.52-0.04-0.78-0.04h-20.33l-3.87-3.87
					c-0.74-0.74-1.15-1.73-1.15-2.78c0-1.05,0.41-2.03,1.15-2.78l36.94-36.94c0.74-0.74,1.73-1.15,2.78-1.15
					c1.05,0,2.03,0.41,2.78,1.15l36.94,36.94c0.74,0.74,1.15,1.73,1.15,2.78C496.28,331.56,495.87,332.55,495.13,333.29z"/>
			</g>
		</g>
	</g>
	<g>
		<g>
			<g>
				<path class="st0" d="M332.26,150h-11.29v25.81H150V350h174.19h8.06c9.78,0,17.74-7.96,17.74-17.74V167.74
					C350,157.96,342.04,150,332.26,150z M332.26,343.55h-8.06H156.45V182.26h164.52v138.71h3.23h3.23h4.84
					c6.23,0,11.29,5.06,11.29,11.29C343.55,338.48,338.48,343.55,332.26,343.55z M343.55,318.58c-3.07-2.54-7.01-4.07-11.29-4.07
					h-4.84V156.45h4.84c6.23,0,11.29,5.06,11.29,11.29V318.58z"/>
				<path class="st0" d="M304.45,201.61h-4.24c-1.75,0-3.48,0.46-5,1.33l-19.42,11.1c-0.55,0.31-1.17,0.48-1.8,0.48h-5.92
					c-1.61,0-3.04-1.08-3.48-2.62l-3.62-12.65c-1.23-4.3-5.21-7.31-9.69-7.31h-48.76c-0.89,0-1.78,0.12-2.65,0.35l-29.56,8.06
					c-4.37,1.19-7.42,5.18-7.42,9.71v52.77c0,3.08,1.38,5.94,3.78,7.86l11.39,9.11c0.74,0.59,1.21,1.44,1.33,2.37l2.13,17.05
					c0.63,5.03,4.93,8.82,9.99,8.82h38.73c1.99,0,3.62,1.62,3.62,3.62v3.66c0,2.28,0.78,4.51,2.21,6.29l2.37,2.97l0.41,1.08
					c0.12-0.05,0.22-0.09,0.34-0.14l6.22,7.78c1.92,2.4,4.79,3.78,7.86,3.78H298c5.55,0,10.07-4.52,10.07-10.07
					c0-2.69-1.05-5.22-2.95-7.12l-5.67-5.67c-0.67-0.67-1.06-1.6-1.06-2.55v-53.27c0-0.68,0.19-1.35,0.55-1.92l14.05-22.48
					c1-1.6,1.53-3.45,1.53-5.34v-17C314.52,206.13,310,201.61,304.45,201.61z M307.52,230.6l-14.05,22.48
					c-1,1.6-1.53,3.45-1.53,5.34v53.27c0,2.69,1.05,5.22,2.95,7.12l5.67,5.67c0.68,0.68,1.06,1.59,1.06,2.56
					c0,1.99-1.62,3.62-3.62,3.62h-44.71c-1.11,0-2.13-0.49-2.82-1.35l-5.15-6.44c2.01-1,3.9-2.08,5.66-3.22l-3.5-5.42
					c-1.92,1.24-4.04,2.39-6.3,3.45l-0.05-0.07c-0.51-0.64-0.79-1.44-0.79-2.26v-3.66c0-5.55-4.52-10.07-10.07-10.07h-38.73
					c-1.82,0-3.36-1.36-3.59-3.17l-2.13-17.05c-0.33-2.62-1.64-4.97-3.7-6.61l-11.39-9.11c-0.87-0.69-1.36-1.72-1.36-2.83v-52.77
					c0-1.63,1.1-3.06,2.66-3.49l29.55-8.06c0.32-0.08,0.64-0.13,0.96-0.13h48.76c1.61,0,3.04,1.08,3.48,2.62l3.62,12.65
					c1.23,4.31,5.21,7.31,9.69,7.31h5.92c1.75,0,3.48-0.46,5-1.33l19.42-11.1c0.55-0.31,1.16-0.48,1.79-0.48h4.24
					c2,0,3.62,1.62,3.62,3.62v17h0C308.06,229.36,307.87,230.03,307.52,230.6z"/>
				<polygon class="st0" points="202.56,212.24 195.16,219.63 187.76,212.24 183.2,216.8 190.6,224.19 183.2,231.59 187.76,236.15 
					195.16,228.75 202.56,236.15 207.12,231.59 199.72,224.19 207.12,216.8 				"/>
				<path class="st0" d="M212.25,325.47l0.87,6.39c4.6-0.63,8.97-1.41,12.98-2.35l-1.46-6.28
					C220.82,324.12,216.65,324.87,212.25,325.47z"/>
				<path class="st0" d="M256.47,306.43l4.91,4.18c2.98-3.5,5.39-7.48,7.17-11.85l-5.97-2.44
					C261.06,300.06,259,303.46,256.47,306.43z"/>
				<path class="st0" d="M265.99,272.52c0.09,1.07,0.14,2.16,0.14,3.28c0,3.12-0.19,6.11-0.55,8.88l6.39,0.85
					c0.41-3.06,0.61-6.33,0.61-9.73c0-1.31-0.06-2.59-0.17-3.84L265.99,272.52z"/>
				<path class="st0" d="M186.89,327.33l0.14,6.45c4.53-0.1,8.92-0.3,13.04-0.59l-0.45-6.44
					C195.6,327.04,191.32,327.23,186.89,327.33z"/>
				<path class="st0" d="M213.8,227.34c0.05,0.01,5.06,1.16,11.9,3.79l2.31-6.02c-7.31-2.81-12.57-4.01-12.8-4.06L213.8,227.34z"/>
				<path class="st0" d="M268.94,258.53c-1.81-4.06-4.32-7.95-7.46-11.6l-4.88,4.22c2.73,3.16,4.9,6.53,6.45,10.01L268.94,258.53z"
					/>
				<path class="st0" d="M237.12,236.3c3.84,2.04,7.37,4.25,10.51,6.6l3.86-5.17c-3.4-2.55-7.22-4.95-11.35-7.13L237.12,236.3z"/>
			</g>
		</g>
	</g>
	<path class="st0" d="M117.01,386.77l-13.41-13.41l6.5-6.5c1.04-1.04,1.04-2.72,0-3.75c-1.04-1.04-2.72-1.04-3.75,0l-2.52,2.52
		l-11.25-11.25c1.74-6.21,2.63-12.63,2.63-19.11l0-40.8c0-1.27-0.9-2.36-2.14-2.6c-30.17-5.95-60.76-5.95-90.92,0
		C0.9,292.11,0,293.2,0,294.47v40.8c0,14.63,4.44,28.69,12.84,40.67c8.4,11.98,20.11,20.95,33.86,25.93c0.29,0.11,0.6,0.16,0.9,0.16
		c0.31,0,0.61-0.05,0.91-0.16c10.72-3.89,20.37-10.33,28.06-18.72l4.87,4.87l-2.52,2.52c-1.04,1.04-1.04,2.72,0,3.75
		c0.52,0.52,1.2,0.78,1.88,0.78c0.68,0,1.36-0.26,1.88-0.78l6.5-6.5l13.41,13.41c1.93,1.93,4.49,2.99,7.22,2.99
		c2.73,0,5.29-1.06,7.22-2.99c1.93-1.93,2.99-4.49,2.99-7.22C120,391.27,118.94,388.7,117.01,386.77z M95.56,373.9l-1.05,1.05
		l-51.26-51.26l12.06,0.93l44.76,44.76L95.56,373.9z M80.6,335.27c0,2.26-0.14,4.51-0.4,6.74l-21.83-21.83
		c-0.45-0.45-1.04-0.72-1.67-0.77l-20.2-1.56c-0.77-0.06-1.53,0.22-2.08,0.77c-0.55,0.55-0.83,1.31-0.77,2.08l1.56,20.2
		c0.05,0.63,0.32,1.22,0.77,1.67l30.25,30.25c-5.21,5.84-11.46,10.43-18.63,13.67c-9.15-4.14-17.01-10.67-22.81-18.93
		c-6.67-9.51-10.19-20.68-10.19-32.29v-29.33c21.91-4.19,44.09-4.19,66,0L80.6,335.27L80.6,335.27z M47.6,396.55
		c-12.33-4.67-22.83-12.84-30.42-23.65C9.42,361.81,5.31,348.8,5.31,335.27v-38.61c28.08-5.26,56.51-5.26,84.59,0v38.61
		c0,4.98-0.57,9.92-1.68,14.75l-3.36-3.36c0.7-3.73,1.06-7.55,1.06-11.39l0-31.51c0-1.26-0.89-2.35-2.12-2.6
		c-24.01-4.89-48.36-4.89-72.37,0c-1.24,0.25-2.12,1.34-2.12,2.6v31.51c0,12.71,3.86,24.93,11.15,35.34
		c6.58,9.39,15.61,16.72,26.11,21.22c0.33,0.14,0.69,0.21,1.05,0.21c0.36,0,0.71-0.07,1.05-0.21c8.23-3.53,15.4-8.65,21.34-15.25
		l2.82,2.82C65.88,387,57.23,392.89,47.6,396.55z M40.42,339.51l-0.93-12.06l51.26,51.26l-5.56,5.56L40.42,339.51z M99.85,377.12
		l1.68,1.68l-4.07,9.78l-4.53-4.53L99.85,377.12z M101.51,392.64l4.07-9.78l2.97,2.97l-4.07,9.78L101.51,392.64z M113.26,397.45
		L113.26,397.45c-0.92,0.92-2.15,1.43-3.46,1.43c-0.3,0-0.6-0.03-0.89-0.08l3.72-8.92l0.64,0.64c0.92,0.92,1.43,2.15,1.43,3.46
		C114.69,395.3,114.18,396.53,113.26,397.45z"/>
	<g>
		<g>
			<g>
				<circle class="st0" cx="51.94" cy="102.25" r="1.61"/>
				<circle class="st0" cx="64.84" cy="105.48" r="1.61"/>
				<circle class="st0" cx="58.39" cy="100.64" r="1.61"/>
				<circle class="st0" cx="69.68" cy="100.64" r="1.61"/>
				<circle class="st0" cx="56.77" cy="107.09" r="1.61"/>
				<path class="st0" d="M72.9,123.22v-4.84h1.61c2.67,0,4.84-2.17,4.84-4.84c0-2.67-2.17-4.84-4.84-4.84h-1.16l3.23-12.9H43.42
					l3.23,12.9h-1.16c-2.67,0-4.84,2.17-4.84,4.84c0,2.67,2.17,4.84,4.84,4.84h1.61v4.84c-10.67,0-19.35,8.68-19.35,19.35v50
					c0,1.78,1.45,3.23,3.23,3.23h58.06c1.78,0,3.23-1.45,3.23-3.23v-50C92.26,131.9,83.58,123.22,72.9,123.22z M58.39,99.03h11.29
					h2.77l-2.42,9.68H56.77h-6.8l-2.42-9.68C47.55,99.03,58.39,99.03,58.39,99.03z M45.48,115.16c-0.89,0-1.61-0.72-1.61-1.61
					s0.72-1.61,1.61-1.61h1.97h25.1h1.96c0.89,0,1.61,0.72,1.61,1.61s-0.72,1.61-1.61,1.61H72.9H47.1H45.48z M89.03,192.58
					L89.03,192.58H30.97v-50c0-8.89,7.24-16.13,16.13-16.13h3.23v-8.06h19.35v8.06h3.23c8.89,0,16.13,7.24,16.13,16.13V192.58z"/>
				<rect x="34.19" y="139.35" class="st0" width="40.32" height="3.23"/>
				<rect x="79.35" y="139.35" class="st0" width="6.45" height="3.23"/>
				<polygon class="st0" points="101.94,108.7 101.94,102.25 98.71,102.25 98.71,108.7 92.26,108.7 92.26,111.93 98.71,111.93 
					98.71,118.38 101.94,118.38 101.94,111.93 108.39,111.93 108.39,108.7 				"/>
				<polygon class="st0" points="27.74,128.06 21.29,128.06 21.29,121.61 18.06,121.61 18.06,128.06 11.61,128.06 11.61,131.29 
					18.06,131.29 18.06,137.74 21.29,137.74 21.29,131.29 27.74,131.29 				"/>
			</g>
		</g>
	</g>
	<g>
		<g>
			<g>
				<path class="st0" d="M280.92,62.65h-5.82c-1.01,0-1.84,0.82-1.84,1.84c0,1.01,0.82,1.84,1.84,1.84h5.82
					c1.01,0,1.84-0.82,1.84-1.84S281.93,62.65,280.92,62.65z"/>
			</g>
		</g>
		<g>
			<g>
				<path class="st0" d="M269.05,62.65h-49.97c-1.01,0-1.84,0.82-1.84,1.84c0,1.01,0.82,1.84,1.84,1.84h49.97
					c1.01,0,1.84-0.82,1.84-1.84S270.07,62.65,269.05,62.65z"/>
			</g>
		</g>
		<g>
			<g>
				<path class="st0" d="M280.92,75.94h-61.83c-1.01,0-1.84,0.82-1.84,1.84c0,1.01,0.82,1.84,1.84,1.84h61.83
					c1.01,0,1.84-0.82,1.84-1.84S281.93,75.94,280.92,75.94z"/>
			</g>
		</g>
		<g>
			<g>
				<path class="st0" d="M280.92,89.22h-61.83c-1.01,0-1.84,0.82-1.84,1.84s0.82,1.84,1.84,1.84h61.83c1.01,0,1.84-0.82,1.84-1.84
					C282.75,90.04,281.93,89.22,280.92,89.22z"/>
			</g>
		</g>
		<g>
			<g>
				<path class="st0" d="M280.92,102.5H265.1c-1.01,0-1.84,0.82-1.84,1.84c0,1.01,0.82,1.84,1.84,1.84h15.82
					c1.01,0,1.84-0.82,1.84-1.84C282.75,103.32,281.93,102.5,280.92,102.5z"/>
			</g>
		</g>
		<g>
			<g>
				<path class="st0" d="M262.93,36.33h-7.04v-7.04c0-1.01-0.82-1.84-1.84-1.84h-8.1c-1.01,0-1.84,0.82-1.84,1.84v7.04h-7.04
					c-1.01,0-1.84,0.82-1.84,1.84v8.1c0,1.01,0.82,1.84,1.84,1.84h7.04v7.04c0,1.01,0.82,1.84,1.84,1.84h8.1
					c1.01,0,1.84-0.82,1.84-1.84v-7.04h7.04c1.01,0,1.84-0.82,1.84-1.84v-8.1C264.77,37.15,263.94,36.33,262.93,36.33z
					 M261.09,44.43h-7.04c-1.01,0-1.84,0.82-1.84,1.84v7.04h-4.43v-7.04c0-1.01-0.82-1.84-1.84-1.84h-7.04v-4.43h7.04
					c1.01,0,1.84-0.82,1.84-1.84v-7.04h4.43v7.04c0,1.01,0.82,1.84,1.84,1.84h7.04V44.43z"/>
			</g>
		</g>
		<g>
			<g>
				<path class="st0" d="M290.19,12.29h-16.27V7.3c0-1.01-0.82-1.84-1.84-1.84h-12.82V5.4c0-2.98-2.42-5.4-5.4-5.4h-7.72
					c-2.98,0-5.4,2.42-5.4,5.4v0.06h-12.82c-1.01,0-1.84,0.82-1.84,1.84v4.99h-16.27c-1.01,0-1.84,0.82-1.84,1.84v23
					c0,1.01,0.82,1.84,1.84,1.84c1.01,0,1.84-0.82,1.84-1.84V15.97h14.44v5.1c0,1.01,0.82,1.84,1.84,1.84h44.16
					c1.01,0,1.84-0.82,1.84-1.84v-5.1h14.44v100.36h-76.7V43.18c0-1.01-0.82-1.84-1.84-1.84s-1.84,0.82-1.84,1.84v74.98
					c0,1.01,0.82,1.84,1.84,1.84h80.38c1.01,0,1.84-0.82,1.84-1.84V14.13C292.03,13.11,291.2,12.29,290.19,12.29z M229.76,19.23
					v-5.1V9.13h12.82c1.01,0,1.84-0.82,1.84-1.84V5.4c0-0.95,0.77-1.72,1.72-1.72h7.72c0.95,0,1.72,0.77,1.72,1.72v1.9
					c0,1.01,0.82,1.84,1.84,1.84h12.82v4.99v5.1L229.76,19.23L229.76,19.23z"/>
			</g>
		</g>
	</g>
	<g>
		<path class="st1" d="M404.63,107.92c-25.4-27.63-58.12-48.43-95.07-59.34"/>
		<path class="st1" d="M458.88,271.74c0.74-7.15,1.12-14.4,1.12-21.74c0-10.76-0.81-21.32-2.37-31.64"/>
		<path class="st1" d="M320.06,448.01c18.08-6.4,35.02-15.19,50.44-26.02"/>
		<path class="st1" d="M126.32,419.72c16.8,12.26,35.48,22.1,55.55,28.98"/>
		<path class="st1" d="M43.03,214.31C41.05,225.91,40,237.83,40,250c0,9.73,0.68,19.31,1.96,28.69"/>
		<path class="st1" d="M186.45,49.8c-27.81,8.82-53.12,23.27-74.57,42.03"/>
	</g>
</g>
</svg>
