<?xml version="1.0" encoding="iso-8859-1"?>
<!-- Generator: Adobe Illustrator 19.0.0, SVG Export Plug-In . SVG Version: 6.00 Build 0)  -->
<svg version="1.1" id="Layer_1" xmlns="http://www.w3.org/2000/svg" xmlns:xlink="http://www.w3.org/1999/xlink" x="0px" y="0px"
	 viewBox="0 0 295.238 295.238" style="enable-background:new 0 0 295.238 295.238;" xml:space="preserve">
<g>
	<g>
		<g>
			<path d="M269.048,0h-16.667v38.095H0v257.143h257.143h11.905c14.438,0,26.19-11.748,26.19-26.19V26.19
				C295.238,11.748,283.486,0,269.048,0z M269.048,285.714h-11.905H9.524V47.619h242.857v204.762h4.762h4.762h7.143
				c9.19,0,16.667,7.476,16.667,16.667C285.714,278.238,278.238,285.714,269.048,285.714z M285.715,248.862
				c-4.533-3.748-10.343-6.005-16.667-6.005h-7.143V9.524h7.143c9.19,0,16.667,7.476,16.667,16.667V248.862z"/>
			<path d="M227.995,76.19h-6.262c-2.586,0-5.133,0.676-7.376,1.957l-28.671,16.386c-0.81,0.462-1.724,0.705-2.652,0.705h-8.743
				c-2.371,0-4.481-1.59-5.133-3.871l-5.338-18.676c-1.814-6.352-7.695-10.786-14.3-10.786H77.543c-1.31,0-2.624,0.176-3.91,0.524
				l-43.629,11.9c-6.452,1.757-10.957,7.652-10.957,14.338v77.905c0,4.543,2.033,8.771,5.576,11.605l16.814,13.452
				c1.09,0.876,1.79,2.119,1.962,3.505l3.148,25.176c0.933,7.429,7.271,13.024,14.752,13.024h57.171
				c2.943,0,5.338,2.395,5.338,5.338v5.405c0,3.362,1.157,6.657,3.257,9.286l3.505,4.381l0.61,1.595
				c0.171-0.067,0.329-0.138,0.5-0.205l9.186,11.481c2.838,3.543,7.067,5.576,11.61,5.576h65.995
				c8.195,0,14.862-6.667,14.862-14.862c0-3.971-1.543-7.705-4.352-10.51l-8.371-8.371c-0.995-0.99-1.562-2.367-1.562-3.771v-78.638
				c0-1.005,0.281-1.986,0.81-2.829l20.738-33.181c1.481-2.362,2.262-5.086,2.262-7.876v-25.1
				C242.857,82.857,236.19,76.19,227.995,76.19z M232.523,118.981l-20.738,33.181c-1.481,2.362-2.262,5.086-2.262,7.876v78.633
				c0,3.967,1.543,7.7,4.352,10.51l8.371,8.371c1.01,1.01,1.562,2.348,1.562,3.776c0,2.943-2.395,5.338-5.338,5.338h-65.995
				c-1.633,0-3.148-0.729-4.167-2l-7.605-9.505c2.962-1.481,5.752-3.067,8.352-4.748l-5.171-8c-2.829,1.829-5.962,3.524-9.3,5.1
				l-0.081-0.1c-0.757-0.948-1.171-2.133-1.171-3.338v-5.405c0-8.195-6.667-14.862-14.862-14.862H61.3
				c-2.686,0-4.967-2.01-5.3-4.676l-3.148-25.171c-0.481-3.867-2.424-7.333-5.457-9.762l-16.814-13.452
				c-1.281-1.024-2.01-2.543-2.01-4.176V88.667c0-2.4,1.619-4.519,3.933-5.152l43.619-11.9c0.471-0.124,0.948-0.19,1.419-0.19
				h71.976c2.371,0,4.481,1.59,5.133,3.871l5.338,18.676c1.814,6.357,7.695,10.79,14.3,10.79h8.743c2.586,0,5.133-0.676,7.376-1.957
				l28.671-16.386c0.805-0.462,1.719-0.705,2.648-0.705h6.262c2.948,0,5.343,2.395,5.343,5.338v25.1h0.001
				C233.333,117.157,233.052,118.138,232.523,118.981z"/>
			<polygon points="77.586,91.871 66.667,102.79 55.748,91.871 49.014,98.605 59.933,109.524 49.014,120.443 55.748,127.176 
				66.667,116.257 77.586,127.176 84.319,120.443 73.4,109.524 84.319,98.605 			"/>
			<path d="M91.89,259.029l1.286,9.433c6.79-0.924,13.238-2.086,19.162-3.462l-2.148-9.276
				C104.548,257.033,98.39,258.143,91.89,259.029z"/>
			<path d="M157.171,230.924l7.252,6.171c4.395-5.167,7.957-11.048,10.581-17.486l-8.819-3.595
				C163.948,221.514,160.91,226.529,157.171,230.924z"/>
			<path d="M171.219,180.867c0.133,1.581,0.21,3.195,0.21,4.848c0,4.605-0.276,9.014-0.819,13.105l9.438,1.257
				c0.605-4.51,0.905-9.338,0.905-14.362c0-1.933-0.086-3.819-0.248-5.667L171.219,180.867z"/>
			<path d="M54.462,261.776l0.214,9.519c6.686-0.152,13.167-0.448,19.252-0.876l-0.671-9.5
				C67.319,261.338,60.995,261.624,54.462,261.776z"/>
			<path d="M94.186,114.171c0.076,0.014,7.476,1.71,17.571,5.59l3.414-8.89c-10.79-4.143-18.562-5.914-18.89-5.99L94.186,114.171z"
				/>
			<path d="M175.576,160.21c-2.667-5.986-6.371-11.743-11.014-17.119l-7.21,6.229c4.033,4.667,7.238,9.633,9.524,14.771
				L175.576,160.21z"/>
			<path d="M128.605,127.39c5.662,3.005,10.881,6.281,15.514,9.743l5.7-7.629c-5.024-3.757-10.657-7.3-16.752-10.529L128.605,127.39
				z"/>
		</g>
	</g>
</g>
<g>
</g>
<g>
</g>
<g>
</g>
<g>
</g>
<g>
</g>
<g>
</g>
<g>
</g>
<g>
</g>
<g>
</g>
<g>
</g>
<g>
</g>
<g>
</g>
<g>
</g>
<g>
</g>
<g>
</g>
</svg>
